<?xml version="1.0" standalone="no"?>
<!DOCTYPE svg PUBLIC "-//W3C//DTD SVG 1.1//EN" "http://www.w3.org/Graphics/SVG/1.1/DTD/svg11.dtd">
<svg xmlns="http://www.w3.org/2000/svg">
<defs >
<font id="Cuprum" horiz-adv-x="452" ><font-face
    font-family="Cuprum Medium"
    units-per-em="1000"
    panose-1="0 0 5 0 0 0 0 0 0 0"
    ascent="895"
    descent="-260"
    alphabetic="0" />
<glyph unicode=" " horiz-adv-x="250" />
<glyph unicode="!" horiz-adv-x="240" d="M107 185L183 700H303L194 185H107ZM67 -7L87 107H187L167 -7H67Z" />
<glyph unicode="&quot;" horiz-adv-x="343" d="M303 465L320 700H426L359 465H303ZM146 465L163 700H270L203 465H146Z" />
<glyph unicode="#" horiz-adv-x="577" d="M83 0L148 198H55L67 272H172L224 428H125L138 502H252L316 700H415L350 502H453L518 700H616L552 502H645L631 428H523L472 272H574L561 198H448L383 0H285L350 198H246L182 0H83ZM263 272H380L432 428H315L263 272Z" />
<glyph unicode="$" d="M177 -90L191 -10H186Q139 -10 99 -4T36 10L45 58L203 59L249 315Q222 329 197 345T152 384T125 443T126 530Q140 609 187 654T317 708L332 790H396L382 709Q420 708 452 702T503 690L494 642H369L324 387Q351 374 377 358T422 320T450 264T449
180Q435 99 390 53T255 -5L241 -90H177ZM269 72Q304 86 323 113T349 180Q356 218 343 242T306 282L269 72ZM267 422L304 632Q240 608 226 530Q220 490 232 465T267 422Z" />
<glyph unicode="%" horiz-adv-x="693" d="M102 0L615 700H715L202 0H102ZM518 -10Q450 -10 418 29T399 140Q412 213 457 251T571 290Q640 290 671 252T689 140Q676 68 632 29T518 -10ZM529 53Q556 53 577 73T606 140Q614 186 601 206T559 227Q532 227 512 207T482
140Q475 94 488 74T529 53ZM245 410Q177 410 146 449T126 560Q140 633 185 671T298 710Q367 710 398 672T416 560Q404 488 359 449T245 410ZM256 473Q284 473 304 493T333 560Q342 606 328 626T287 647Q259 647 239 627T210 560Q202 514 215 494T256 473Z" />
<glyph unicode="&amp;" horiz-adv-x="525" d="M198 -10Q122 -10 86 37T66 180Q74 225 87 266T113 330H191L164 180Q156 130 162 104T183 68T211 58Q230 58 246 67T281 98T323 160Q283 235 259 289T222 385T209 460T213 530Q228 618 282 664T420 710Q468 710 508
704T569 690L561 642H427Q386 642 354 613T313 530Q308 497 308 462T325 380T379 262L453 390H553L424 170L515 0H405L366 76Q343 47 321 28T269 0T198 -10Z" />
<glyph unicode="&apos;" horiz-adv-x="187" d="M146 465L163 700H270L203 465H146Z" />
<glyph unicode="(" horiz-adv-x="253" d="M163 -190Q121 -105 104 -22T87 138T99 280Q111 345 137 421T210 581T329 750L379 720Q313 615 273 512T209 280Q187 153 190 49T224 -160L163 -190Z" />
<glyph unicode=")" horiz-adv-x="253" d="M22 -190L-28 -160Q39 -55 79 49T142 280Q165 408 161 511T126 720L188 750Q230 665 247 582T264 422T252 280Q240 215 214 139T141 -21T22 -190Z" />
<glyph unicode="*" horiz-adv-x="437" d="M207 320L142 359L231 485L109 510L141 587L273 558L298 700H385L359 558L502 587L506 510L375 485L420 359L342 320L297 446L207 320Z" />
<glyph unicode="+" horiz-adv-x="437" d="M193 97L222 263H76L89 337H236L265 503H348L319 337H466L452 263H306L276 97H193Z" />
<glyph unicode="," horiz-adv-x="178" d="M19 -117L58 107H162L89 -117H19Z" />
<glyph unicode="-" horiz-adv-x="367" d="M76 263L89 337H396L382 263H76Z" />
<glyph unicode="." horiz-adv-x="180" d="M39 -7L58 107H158L139 -7H39Z" />
<glyph unicode="/" horiz-adv-x="400" d="M0 0L423 700H523L100 0H0Z" />
<glyph unicode="0" horiz-adv-x="517" d="M256 -10Q209 -10 174 7T118 66T94 176T109 350Q134 488 174 566T267 677T383 710Q431 710 466 693T522 634T545 524T529 350Q506 212 466 133T373 22T256 -10ZM267 53Q287 53 308 66T352 112T394 203T429 350Q445 439
445 497T436 587T409 633T372 647Q352 647 331 634T287 588T245 497T209 350Q194 261 194 203T203 113T230 67T267 53Z" />
<glyph unicode="1" horiz-adv-x="288" d="M118 0L229 627H120L129 680Q153 688 196 694T286 700H341L218 0H118Z" />
<glyph unicode="2" horiz-adv-x="400" d="M12 0L26 83Q114 172 174 233T272 338T330 420T358 500Q371 576 349 609T274 642H134L143 690Q167 698 210 704T300 710Q399 710 438 660T458 500Q449 452 425 407T359 314T260 207T128 73H381L368 0H12Z" />
<glyph unicode="3" horiz-adv-x="422" d="M166 -10Q119 -10 79 -4T16 10L25 58H158Q229 58 266 89T316 190Q330 264 304 296T206 329H133L145 402H209Q273 402 309 432T355 525Q366 583 343 612T267 642H137L146 690Q170 698 213 704T303 710Q395 710 433 663T455
525Q445 469 415 432T337 372L336 368Q373 358 392 331T417 267T416 190Q398 88 339 39T166 -10Z" />
<glyph unicode="4" horiz-adv-x="475" d="M288 0L319 177H59L73 260L401 700H511L432 250H491L477 177H419L388 0H288ZM166 250H332L383 543H379L166 250Z" />
<glyph unicode="5" d="M196 -10Q149 -10 109 -4T46 10L55 58H188Q259 58 297 91T348 200Q362 278 336 310T238 343H118L181 700H515L502 632H269L231 412H271Q385 412 426 362T448 200Q429 90 370 40T196 -10Z" />
<glyph unicode="6" horiz-adv-x="462" d="M236 -10Q141 -10 103 40T83 200L122 420Q150 575 214 642T373 710Q421 710 461 704T523 690L514 642H384Q348 642 317 620T261 547T219 403Q243 411 275 416T334 422Q413 422 448 371T464 202Q444 91 388 41T236 -10ZM247
53Q286 53 317 87T364 202Q379 289 357 323T271 358H211L183 200Q169 120 188 87T247 53Z" />
<glyph unicode="7" horiz-adv-x="417" d="M108 0Q155 143 228 299T399 627H130L143 700H510L495 617Q398 449 327 296T208 0H108Z" />
<glyph unicode="8" horiz-adv-x="487" d="M241 -10Q135 -10 94 37T69 180Q78 229 102 265T159 325T226 363V367Q202 376 181 398T150 454T147 535Q162 619 217 664T368 710Q464 710 503 665T527 535Q519 489 497 455T445 398T389 367V363Q418 350 441 326T476
265T479 180Q463 85 406 38T241 -10ZM252 53Q301 53 334 84T379 180Q389 236 366 268T300 323Q250 301 215 269T169 180Q158 115 181 84T252 53ZM315 406Q356 420 386 451T427 535Q437 589 416 618T357 647Q319 647 288 618T247 535Q237 483 257 452T315 406Z"
/>
<glyph unicode="9" horiz-adv-x="462" d="M211 -10Q164 -10 124 -4T61 10L70 58H200Q237 58 268 80T324 154T365 297Q342 290 310 284T250 278Q172 278 136 329T121 498Q141 610 197 660T348 710Q444 710 482 660T501 500L462 280Q435 125 371 58T211 -10ZM313
342H373L401 500Q415 580 395 613T337 647Q298 647 267 614T221 498Q205 411 227 377T313 342Z" />
<glyph unicode=":" horiz-adv-x="180" d="M108 387L128 500H228L208 387H108ZM39 -7L58 107H158L139 -7H39Z" />
<glyph unicode=";" horiz-adv-x="173" d="M19 -117L58 107H162L89 -117H19ZM108 387L128 500H228L208 387H108Z" />
<glyph unicode="&lt;" horiz-adv-x="402" d="M362 8L76 207L92 298L449 497L431 393L183 256L182 250L381 112L362 8Z" />
<glyph unicode="=" horiz-adv-x="437" d="M60 173L74 252H451L436 173H60ZM91 348L104 427H481L467 348H91Z" />
<glyph unicode="&gt;" horiz-adv-x="402" d="M41 8L59 112L307 250L308 256L109 393L127 497L414 298L398 207L41 8Z" />
<glyph unicode="?" horiz-adv-x="378" d="M137 185Q146 239 167 275T215 339T267 392T312 448T339 520Q350 581 327 611T252 642H122L131 690Q155 698 198 704T288 710Q380 710 418 663T439 520Q430 469 409 434T359 371T304 317T255 260T224 185H137ZM97 -7L117
107H217L197 -7H97Z" />
<glyph unicode="@" horiz-adv-x="837" d="M417 -90Q229 -90 149 10T102 310Q138 510 251 610T538 710Q659 710 735 668T841 549T852 365Q835 265 798 204T695 117T525 90L523 120H518Q496 101 468 91T407 80Q367 80 335 102T290 171T290 293Q306 385 337 439T421
516T548 540Q582 540 620 534T679 520L615 155Q646 155 672 172T720 235T756 365Q779 501 720 574T527 647Q443 647 377 614T266 506T199 310Q178 191 199 118T282 12T449 -22H582L574 -70Q550 -77 508 -83T417 -90ZM448 143Q467 143 486 149T517 163L572 477H537Q499
477 471 461T422 405T390 293Q380 238 386 205T409 158T448 143Z" />
<glyph unicode="A" horiz-adv-x="520" d="M18 0L315 700H451L502 0H400L386 178H195L120 0H18ZM224 252H384L364 580H360L224 252Z" />
<glyph unicode="B" horiz-adv-x="510" d="M233 -10Q184 -10 146 -6T71 10L191 690Q231 701 271 705T360 710Q468 710 509 663T534 525Q526 480 499 441T423 377L422 373Q478 355 497 307T505 190Q493 122 462 78T376 12T233 -10ZM180 58H245Q316 58 353 89T403
192Q417 268 391 300T294 333H229L180 58ZM240 402H295Q352 402 386 432T432 523Q442 582 418 612T337 642H282L240 402Z" />
<glyph unicode="C" horiz-adv-x="442" d="M271 -10Q199 -10 155 21T98 131T109 350Q134 490 174 568T267 678T388 710Q436 710 476 704T538 690L529 642H402Q362 642 326 617T260 529T209 350Q190 235 197 172T234 83T310 58H436L428 10Q405 3 362 -3T271 -10Z" />
<glyph unicode="D" horiz-adv-x="528" d="M233 -10Q184 -10 146 -6T71 10L191 690Q231 701 271 705T360 710Q441 710 490 678T552 567T541 350Q517 212 476 133T374 22T233 -10ZM180 58H245Q288 58 325 83T391 171T441 350Q462 466 455 529T419 617T347 642H282L180 58Z" />
<glyph unicode="E" horiz-adv-x="458" d="M70 0L193 700H541L529 627H280L240 402H459L446 328H228L183 73H431L418 0H70Z" />
<glyph unicode="F" horiz-adv-x="438" d="M70 0L193 700H541L529 627H280L237 387H446L433 313H225L170 0H70Z" />
<glyph unicode="G" horiz-adv-x="508" d="M291 -10Q209 -10 160 21T98 131T109 350Q134 490 174 568T270 678T398 710Q446 710 486 704T548 690L539 642H409Q365 642 328 617T260 529T209 350Q190 235 198 172T238 83T323 58H358L415 380H515L449 10Q426 3 383
-3T291 -10Z" />
<glyph unicode="H" horiz-adv-x="540" d="M70 0L193 700H293L238 392H438L493 700H593L470 0H370L426 318H226L170 0H70Z" />
<glyph unicode="I" horiz-adv-x="240" d="M70 0L193 700H293L170 0H70Z" />
<glyph unicode="J" horiz-adv-x="358" d="M91 -10Q67 -10 43 -4T1 10L10 58H103Q136 58 162 74T208 130T240 240L321 700H421L340 240Q324 147 293 92T212 14T91 -10Z" />
<glyph unicode="K" horiz-adv-x="500" d="M70 0L193 700H293L234 367L478 700H593L334 355L490 0H375L230 343L170 0H70Z" />
<glyph unicode="L" horiz-adv-x="428" d="M70 0L193 700H293L183 73H431L418 0H70Z" />
<glyph unicode="M" horiz-adv-x="747" d="M53 0L216 700H333L410 222H414L660 700H776L693 0H595L654 505H650L436 88H340L274 505H269L152 0H53Z" />
<glyph unicode="N" horiz-adv-x="550" d="M70 0L193 700H300L415 217H420L505 700H603L480 0H373L258 483H253L168 0H70Z" />
<glyph unicode="O" horiz-adv-x="537" d="M266 -10Q215 -10 178 7T119 66T94 176T109 350Q134 488 174 566T270 677T393 710Q445 710 482 693T541 634T565 524T549 350Q526 212 486 133T390 22T266 -10ZM277 53Q308 53 340 78T400 167T449 350Q465 439 465 496T455
587T424 633T382 647Q351 647 320 622T260 533T209 350Q194 261 194 204T204 113T235 67T277 53Z" />
<glyph unicode="P" horiz-adv-x="498" d="M70 0L191 690Q231 701 271 705T360 710Q441 710 486 687T544 608T541 460Q524 364 493 308T414 227T301 203Q282 203 254 206T207 213L170 0H70ZM218 277H283Q326 277 356 293T407 349T441 460Q454 531 447 570T415 626T347
642H282L218 277Z" />
<glyph unicode="Q" horiz-adv-x="545" d="M266 -10Q215 -10 178 7T119 66T94 176T109 350Q134 488 174 566T270 677T393 710Q445 710 482 693T541 634T565 524T549 350Q530 235 498 164T425 53Q466 53 493 47T542 33L535 -10H266ZM277 53Q308 53 340 78T400 167T449
350Q465 439 465 496T455 587T424 633T382 647Q351 647 320 622T260 533T209 350Q193 260 193 202T205 112T236 66T277 53Z" />
<glyph unicode="R" horiz-adv-x="515" d="M70 0L191 690Q231 701 271 705T360 710Q441 710 486 687T545 611T542 470Q531 403 511 359T464 290T401 250L482 0H370L298 228H210L170 0H70ZM222 302H287Q351 302 388 338T442 470Q454 536 447 573T415 626T347 642H282L222
302Z" />
<glyph unicode="S" d="M186 -10Q139 -10 99 -4T36 10L45 58H178Q260 58 299 88T349 180Q356 217 345 240T311 280T260 309T205 339T156 379T125 439T126 530Q142 618 198 664T353 710Q401 710 441 704T503 690L494 642H361Q304 642 270 613T226 530Q219 491 230
466T264 424T314 393T369 364T418 325T449 268T449 180Q433 85 373 38T186 -10Z" />
<glyph unicode="T" horiz-adv-x="437" d="M168 0L279 627H120L133 700H550L537 627H379L268 0H168Z" />
<glyph unicode="U" horiz-adv-x="530" d="M263 -10Q192 -10 151 13T98 92T102 240L183 700H283L202 240Q189 167 194 127T220 70T274 53Q306 53 332 69T379 126T412 240L493 700H593L512 240Q495 147 464 92T384 14T263 -10Z" />
<glyph unicode="V" horiz-adv-x="500" d="M182 0L141 700H243L268 115H272L503 700H605L318 0H182Z" />
<glyph unicode="W" horiz-adv-x="730" d="M137 0L141 700H243L238 172H243L418 570H512L547 172H552L733 700H835L593 0H477L439 410H435L253 0H137Z" />
<glyph unicode="X" horiz-adv-x="470" d="M13 0L225 360L151 700H253L310 427L463 700H565L371 360L457 0H355L286 295L115 0H13Z" />
<glyph unicode="Y" horiz-adv-x="460" d="M180 0L218 217L131 700H233L291 349L473 700H575L318 217L280 0H180Z" />
<glyph unicode="Z" horiz-adv-x="415" d="M20 0L32 68L390 627H135L148 700H518L506 632L148 73H403L390 0H20Z" />
<glyph unicode="[" horiz-adv-x="268" d="M38 -180L200 740H398L387 677H289L149 -117H247L236 -180H38Z" />
<glyph unicode="\" horiz-adv-x="400" d="M300 0L123 700H223L400 0H300Z" />
<glyph unicode="]" horiz-adv-x="268" d="M-31 -180L-20 -117H77L217 677H119L130 740H328L166 -180H-31Z" />
<glyph unicode="^" horiz-adv-x="455" d="M173 405L109 450L305 700H396L504 450L424 405L336 605H331L173 405Z" />
<glyph unicode="_" horiz-adv-x="307" d="M-13 -73L0 0H307L293 -73H-13Z" />
<glyph unicode="`" horiz-adv-x="180" d="M182 560L127 690H225L245 560H182Z" />
<glyph unicode="a" horiz-adv-x="473" d="M208 -10Q157 -10 124 14T80 95T87 250Q105 348 136 405T216 486T336 510Q383 510 420 503T492 480L408 0H330L327 30H322Q301 12 272 1T208 -10ZM252 53Q271 53 290 59T321 73L387 447H325Q294 447 268 431T221 371T187
250Q174 172 178 129T202 70T252 53Z" />
<glyph unicode="b" horiz-adv-x="478" d="M230 -10Q182 -10 145 -3T73 20L193 700H293L255 485Q278 496 301 503T354 510Q408 510 441 486T486 405T479 250Q461 152 430 95T349 14T230 -10ZM179 53H240Q272 53 298 69T345 129T379 250Q393 328 388 371T364 430T313
447Q294 447 275 441T245 427L179 53Z" />
<glyph unicode="c" horiz-adv-x="382" d="M241 -10Q173 -10 133 14T82 95T87 250Q105 348 135 405T212 486T322 510Q355 510 388 504T443 490L435 447H332Q297 447 269 431T221 371T187 250Q174 172 179 129T208 70T272 53H375L368 10Q345 3 310 -3T241 -10Z" />
<glyph unicode="d" horiz-adv-x="478" d="M208 -10Q157 -10 124 14T80 95T87 250Q105 348 135 405T207 486T302 510Q331 510 353 503T393 485L431 700H531L408 0H330L327 30H322Q301 12 272 1T208 -10ZM252 53Q271 53 289 59T321 73L383 427Q374 435 358 441T322
447Q292 447 267 431T221 371T187 250Q174 172 178 129T202 70T252 53Z" />
<glyph unicode="e" horiz-adv-x="442" d="M256 -10Q181 -10 138 14T82 95T87 250Q105 348 135 405T213 486T326 510Q412 510 451 468T476 352Q464 282 414 245T270 208H180Q165 122 190 88T287 53H390L383 10Q360 3 325 -3T256 -10ZM191 272H281Q319 272 344 293T376
352Q385 399 366 425T314 452Q287 452 264 437T222 383T191 272Z" />
<glyph unicode="f" horiz-adv-x="327" d="M-4 -210Q-28 -210 -60 -204T-110 -190L-102 -147H-19Q-2 -147 15 -138T48 -106T70 -40L152 422H94L106 490H164L171 530Q184 600 209 636T270 686T346 700Q372 700 405 694T456 680L448 637H362Q345 637 327 629T294
597T271 530L264 490H403L394 442Q370 435 335 429T267 422H252L170 -40Q158 -110 133 -146T72 -196T-4 -210Z" />
<glyph unicode="g" horiz-adv-x="473" d="M165 -210Q133 -210 100 -204T46 -190L54 -147H157Q221 -147 258 -112T310 15Q289 4 265 -3T211 -10Q158 -10 124 14T80 95T87 250Q105 348 136 405T216 486T336 510Q383 510 420 503T492 480L415 40Q399 -53 368 -108T286
-186T165 -210ZM252 53Q271 53 290 59T321 73L387 447H325Q294 447 268 431T221 371T187 250Q174 172 178 129T202 70T252 53Z" />
<glyph unicode="h" horiz-adv-x="490" d="M70 0L193 700H293L255 483Q279 496 306 503T366 510Q409 510 440 498T485 452T487 357L425 0H325L387 357Q394 392 385 411T358 439T313 447Q294 447 275 441T245 427L170 0H70Z" />
<glyph unicode="i" horiz-adv-x="240" d="M70 0L158 500H258L170 0H70ZM169 567L189 680H289L269 567H169Z" />
<glyph unicode="j" horiz-adv-x="248" d="M-4 -210Q-28 -210 -52 -204T-93 -190L-85 -147H-15Q0 -147 17 -138T49 -105T70 -40L166 500H266L170 -40Q158 -110 133 -146T72 -196T-4 -210ZM178 567L197 680H297L278 567H178Z" />
<glyph unicode="k" horiz-adv-x="443" d="M70 0L193 700H293L218 275L395 500H505L314 265L433 0H323L214 255L170 0H70Z" />
<glyph unicode="l" horiz-adv-x="240" d="M70 0L193 700H293L170 0H70Z" />
<glyph unicode="m" horiz-adv-x="707" d="M65 0L153 500H231L234 470H239Q260 488 286 499T351 510Q386 510 412 500T455 467Q483 488 519 499T587 510Q627 510 657 498T701 452T704 357L642 0H542L604 357Q610 392 602 411T578 439T542 447Q521 447 501 442T468
428Q470 417 470 399T466 357L403 0H303L366 357Q372 392 364 411T340 439T305 447Q286 447 269 441T240 427L165 0H65Z" />
<glyph unicode="n" horiz-adv-x="485" d="M65 0L153 500H231L234 470H239Q260 488 289 499T354 510Q400 510 432 498T479 452T482 357L420 0H320L382 357Q389 392 380 411T353 439T308 447Q289 447 270 441T240 427L165 0H65Z" />
<glyph unicode="o" horiz-adv-x="467" d="M231 -10Q170 -10 132 15T82 97T87 250Q104 347 135 403T214 485T322 510Q384 510 422 485T472 404T467 250Q450 154 418 97T340 15T231 -10ZM241 48Q265 48 289 65T333 127T367 250Q381 329 377 373T355 434T313 452Q289
452 265 435T221 373T187 250Q173 171 177 127T199 66T241 48Z" />
<glyph unicode="p" horiz-adv-x="473" d="M29 -200L153 500H231L234 470H239Q260 488 289 499T352 510Q404 510 437 486T481 405T474 250Q456 152 426 95T354 14T258 -10Q229 -10 208 -3T167 15L129 -200H29ZM239 53Q269 53 294 69T340 129T374 250Q388 328 383
371T359 430T308 447Q289 447 271 441T240 427L178 73Q186 66 203 60T239 53Z" />
<glyph unicode="q" horiz-adv-x="473" d="M272 -200L310 15Q289 4 265 -3T211 -10Q158 -10 124 14T80 95T87 250Q105 348 136 405T216 486T336 510Q383 510 420 503T492 480L372 -200H272ZM252 53Q271 53 290 59T321 73L387 447H325Q294 447 268 431T221 371T187
250Q174 172 178 129T202 70T252 53Z" />
<glyph unicode="r" horiz-adv-x="343" d="M65 0L153 500H232L233 460H238Q258 475 289 487T366 500H421L407 422H304Q285 422 268 417T235 402L165 0H65Z" />
<glyph unicode="s" horiz-adv-x="402" d="M161 -10Q129 -10 96 -4T41 10L49 53H152Q216 53 250 70T290 130Q296 159 282 176T244 206T191 230T140 259T104 305T100 377Q113 454 164 482T307 510Q340 510 373 504T428 490L420 447H317Q268 447 237 431T200 380Q195
351 209 334T247 304T300 280T351 251T387 206T391 133Q382 77 355 46T280 2T161 -10Z" />
<glyph unicode="t" horiz-adv-x="352" d="M221 -10Q181 -10 150 3T107 53T106 160L152 422H94L106 490H164L185 610H285L264 490H403L394 442Q370 435 335 429T267 422H252L206 160Q199 117 205 94T226 62T255 53H345L338 10Q325 5 304 1T260 -7T221 -10Z" />
<glyph unicode="u" horiz-adv-x="485" d="M218 -10Q173 -10 140 2T93 48T90 143L153 500H253L190 143Q181 91 203 72T264 53Q283 53 302 59T333 73L408 500H508L420 0H342L338 30H333Q312 12 283 1T218 -10Z" />
<glyph unicode="v" horiz-adv-x="443" d="M153 0L103 500H200L236 98H240L420 500H516L290 0H153Z" />
<glyph unicode="w" horiz-adv-x="623" d="M108 0L103 500H200L201 130H205L340 400H423L463 130H468L600 500H696L515 0H398L359 262H355L225 0H108Z" />
<glyph unicode="x" horiz-adv-x="410" d="M13 0L181 255L106 500H207L261 318L379 500H480L317 255L397 0H295L238 192L115 0H13Z" />
<glyph unicode="y" horiz-adv-x="485" d="M177 -210Q145 -210 112 -204T58 -190L65 -147H169Q233 -147 269 -112T322 17Q299 4 274 -3T218 -10Q173 -10 140 2T93 48T90 143L153 500H253L190 143Q181 91 203 72T264 53Q283 53 302 59T333 73L408 500H508L427 40Q410
-53 379 -108T298 -186T177 -210Z" />
<glyph unicode="z" horiz-adv-x="380" d="M20 0L31 63L319 432H105L118 500H448L436 437L149 68H367L355 0H20Z" />
<glyph unicode="{" horiz-adv-x="293" d="M261 -180Q196 -180 155 -167T99 -117T96 -10L119 120Q130 183 114 210T64 248L74 312Q113 323 139 350T175 440L198 570Q211 640 238 676T312 726T423 740L412 677Q371 677 341 656T298 570L279 460Q269 405 253 373T215
320T164 282V278Q186 260 201 240T220 188T215 100L196 -10Q188 -55 196 -77T224 -108T272 -117L261 -180Z" />
<glyph unicode="|" horiz-adv-x="240" d="M34 -200L193 700H293L134 -200H34Z" />
<glyph unicode="}" horiz-adv-x="293" d="M-31 -180L-20 -117Q7 -117 29 -109T68 -78T93 -10L112 100Q122 155 138 187T177 240T227 278V282Q206 300 191 320T171 372T176 460L195 570Q203 613 195 636T166 668T119 677L130 740Q196 740 237 727T293 677T295 570L272
440Q261 377 277 350T328 312L317 248Q278 237 253 210T216 120L193 -10Q181 -80 153 -116T80 -166T-31 -180Z" />
<glyph unicode="~" horiz-adv-x="453" d="M66 197Q78 278 109 321T206 364Q237 364 258 352T296 324T326 296T357 284Q382 284 395 304T412 358H485Q474 277 442 235T342 192Q313 192 293 204T258 231T227 259T195 271Q170 271 157 251T139 197H66Z" />
<glyph unicode="&#xa0;" horiz-adv-x="250" />
<glyph unicode="&#xa1;" horiz-adv-x="240" d="M60 0L165 515H252L180 0H60ZM173 593L193 707H293L273 593H173Z" />
<glyph unicode="&#xa2;" horiz-adv-x="382" d="M201 -60L210 -8Q153 -4 121 22T80 104T87 250Q103 342 131 398T202 480T301 509L312 570H375L364 507Q409 501 443 490L435 447H353L284 53H375L368 10Q350 4 325 -1T273 -8L264 -60H201ZM222 61L289 440Q254 427
229 385T187 250Q171 161 180 118T222 61Z" />
<glyph unicode="&#xa3;" horiz-adv-x="422" d="M45 0L54 53Q71 63 85 81T110 129T130 210L149 318H91L103 392H162L181 500Q197 590 226 635T304 695T423 710Q449 710 472 704T513 690L504 642H411Q378 642 353 632T310 592T281 500L262 392H410L397 318H249L234
234Q222 162 202 128T157 77L156 73H414L402 0H45Z" />
<glyph unicode="&#xa4;" horiz-adv-x="520" d="M103 132L59 185L141 255Q133 273 131 298T133 350Q138 376 149 401T175 445L117 515L180 568L238 503Q259 520 291 530T354 540Q388 540 415 530T458 503L540 568L583 515L501 445Q509 427 511 402T509 350Q505
324 494 299T467 255L525 185L463 132L404 197Q384 180 353 170T287 160Q256 160 228 170T184 197L103 132ZM300 228Q335 228 366 258T408 350Q418 411 398 441T342 472Q308 472 277 442T234 350Q224 289 244 259T300 228Z" />
<glyph unicode="&#xa5;" horiz-adv-x="460" d="M180 0L215 202H97L110 275H207L197 332H120L133 405H184L131 700H233L291 349L473 700H575L417 405H469L457 332H379L348 275H446L434 202H315L280 0H180Z" />
<glyph unicode="&#xa6;" horiz-adv-x="240" d="M34 -200L98 163H198L134 -200H34ZM125 317L189 680H289L225 317H125Z" />
<glyph unicode="&#xa7;" horiz-adv-x="445" d="M150 -210Q111 -210 74 -204T16 -190L24 -147H142Q215 -147 251 -120T296 -50Q302 -16 287 5T244 43T185 75T128 112T89 167T84 250Q94 307 130 345T209 403Q188 417 171 436T147 483T146 550Q159 623 216 666T375
710Q415 710 451 704T509 690L502 647H383Q323 647 289 620T246 550Q240 516 254 495T295 457T352 425T407 388T445 333T449 250Q439 194 404 157T327 100Q350 86 368 67T395 19T396 -50Q383 -122 324 -166T150 -210ZM268 130Q297 146 318 174T349 250Q355 282
344 303T311 341T265 370Q236 355 214 327T184 250Q178 219 189 197T221 160T268 130Z" />
<glyph unicode="&#xa8;" horiz-adv-x="297" d="M281 577L301 690H398L378 577H281ZM121 577L141 690H238L218 577H121Z" />
<glyph unicode="&#xa9;" horiz-adv-x="820" d="M406 -20Q295 -20 221 25T117 153T106 350Q127 463 186 546T335 675T536 720Q647 720 721 675T826 547T836 350Q816 237 757 154T607 25T406 -20ZM442 130Q400 130 369 138T320 170T298 236T306 350Q319 420 338
463T383 530T444 561T520 570Q556 570 584 564T634 550L627 507H529Q496 507 471 496T427 452T396 350Q384 282 391 249T419 204T474 193H582L574 150Q550 143 514 137T442 130ZM417 43Q498 43 565 79T679 183T743 350Q760 448 738 516T661 621T525 657Q445 657
377 621T263 517T199 350Q183 252 205 184T282 79T417 43Z" />
<glyph unicode="&#xaa;" horiz-adv-x="292" d="M187 395Q166 395 147 404T119 434T116 490Q125 544 158 565T232 587Q251 587 271 585T292 582L295 600Q300 628 287 640T243 652H169L177 693Q193 698 217 701T262 705Q321 705 349 685T367 600L332 400H268L266
420Q249 409 230 402T187 395ZM227 448Q239 448 250 451T271 460L284 533H242Q221 533 206 523T188 490Q184 470 195 459T227 448Z" />
<glyph unicode="&#xab;" horiz-adv-x="460" d="M364 37L241 250L440 463L503 418L351 252L350 248L444 82L364 37ZM187 37L64 250L263 463L327 418L174 252L173 248L267 82L187 37Z" />
<glyph unicode="&#xac;" horiz-adv-x="428" d="M369 240L375 338H89L102 412H471L440 240H369Z" />
<glyph unicode="&#xad;" horiz-adv-x="360" d="M75 260L89 340H389L375 260H75Z" />
<glyph unicode="&#xae;" horiz-adv-x="820" d="M406 -20Q295 -20 221 25T117 153T106 350Q127 463 186 546T335 675T536 720Q647 720 721 675T826 547T836 350Q816 237 757 154T607 25T406 -20ZM417 43Q498 43 565 79T679 183T743 350Q760 448 738 516T661 621T525
657Q445 657 377 621T263 517T199 350Q183 252 205 184T282 79T417 43ZM289 140L361 550Q389 558 422 564T503 570Q557 570 591 558T640 514T645 430Q638 389 622 365T588 329T552 308L604 140H509L466 288H406L379 140H289ZM416 352H465Q495 352 521 369T555 430Q563
473 543 490T492 507H444L416 352Z" />
<glyph unicode="&#xaf;" horiz-adv-x="273" d="M132 637L143 700H376L365 637H132Z" />
<glyph unicode="&#xb0;" horiz-adv-x="390" d="M263 390Q192 390 158 432T136 550Q150 625 199 667T320 710Q392 710 426 668T446 550Q433 475 384 433T263 390ZM275 453Q302 453 325 476T358 550Q367 600 352 623T308 647Q281 647 258 624T224 550Q216 500 231
477T275 453Z" />
<glyph unicode="&#xb1;" horiz-adv-x="437" d="M203 150L229 303H83L96 377H243L270 533H354L326 377H473L459 303H313L286 150H203ZM38 48L51 122H428L414 48H38Z" />
<glyph unicode="&#xb2;" horiz-adv-x="260" d="M100 400L110 458Q170 499 214 537T265 608Q268 626 257 639T221 652H154L162 694Q178 699 201 702T246 705Q301 705 323 680T337 608Q330 570 295 534T191 453H310L300 400H100Z" />
<glyph unicode="&#xb3;" horiz-adv-x="260" d="M176 395Q154 395 135 398T101 406L109 448H185Q210 448 225 458T244 487Q247 507 237 517T204 528H158L167 582H209Q233 582 243 593T257 618Q259 632 250 642T215 652H144L152 694Q167 699 189 702T236 705Q286
705 311 687T329 620Q325 597 308 581T276 560Q294 556 307 538T315 485Q306 433 270 414T176 395Z" />
<glyph unicode="&#xb4;" horiz-adv-x="177" d="M118 560L176 690H278L183 560H118Z" />
<glyph unicode="&#xb5;" horiz-adv-x="485" d="M29 -200L153 500H253L193 163Q184 111 205 82T264 53Q283 53 302 59T333 73L408 500H508L420 0H342L338 30H333Q311 11 287 1T233 -10Q204 -10 188 2T168 18L129 -200H29Z" />
<glyph unicode="&#xb6;" horiz-adv-x="542" d="M179 -200L273 330Q187 330 146 379T120 515Q129 563 158 605T234 673T338 700H645L632 627H565L419 -200H329L475 627H415L269 -200H179Z" />
<glyph unicode="&#xb7;" horiz-adv-x="260" d="M132 293L151 407H251L232 293H132Z" />
<glyph unicode="&#xb8;" horiz-adv-x="205" d="M65 -167Q30 -167 12 -160T-6 -152L-1 -120H63Q81 -120 89 -114T99 -97Q101 -87 96 -80T73 -73H18L34 15H85L78 -27H93Q135 -27 154 -47T168 -97Q163 -127 136 -147T65 -167Z" />
<glyph unicode="&#xb9;" horiz-adv-x="190" d="M158 400L202 647H143L151 688Q167 693 194 696T250 700H283L230 400H158Z" />
<glyph unicode="&#xba;" horiz-adv-x="307" d="M222 395Q169 395 141 433T126 550Q140 629 182 667T277 705Q331 705 359 667T373 550Q360 471 318 433T222 395ZM232 448Q254 448 272 470T301 550Q312 608 301 630T268 652Q247 652 228 630T198 550Q188 493 199
471T232 448Z" />
<glyph unicode="&#xbb;" horiz-adv-x="460" d="M284 37L220 82L373 248L374 252L280 418L360 463L484 250L284 37ZM107 37L44 82L196 248L197 252L103 418L183 463L307 250L107 37Z" />
<glyph unicode="&#xbc;" horiz-adv-x="570" d="M40 0L553 700H643L130 0H40ZM415 0L425 62H282L292 115L464 300H539L507 115H535L525 62H497L487 0H415ZM363 115H435L451 209L363 115ZM175 400L218 647H160L168 688Q184 693 211 696T266 700H303L250 400H175Z" />
<glyph unicode="&#xbd;" horiz-adv-x="600" d="M50 0L563 700H653L140 0H50ZM340 0L350 58Q410 99 454 137T505 208Q508 226 497 239T460 252H394L401 294Q417 299 440 302T485 305Q540 305 562 280T577 208Q570 170 534 134T430 53H549L540 0H340ZM187 400L230
647H172L179 688Q195 693 223 696T278 700H315L262 400H187Z" />
<glyph unicode="&#xbe;" horiz-adv-x="578" d="M48 0L561 700H651L138 0H48ZM423 0L434 62H290L300 115L472 300H547L515 115H543L534 62H505L495 0H423ZM372 115H443L460 209L372 115ZM186 395Q164 395 145 398T111 406L119 448H195Q220 448 235 458T254 487Q257
507 247 517T214 528H168L177 582H219Q243 582 253 593T267 618Q269 632 260 642T225 652H154L162 694Q177 699 199 702T246 705Q296 705 321 687T339 620Q335 597 318 581T286 560Q304 556 317 538T325 485Q316 433 280 414T186 395Z" />
<glyph unicode="&#xbf;" horiz-adv-x="378" d="M213 -10Q122 -10 83 37T61 180Q70 231 92 266T142 329T197 383T247 440T277 515H363Q354 462 333 425T286 361T234 308T189 252T161 180Q150 119 173 89T248 58H378L369 10Q346 3 304 -3T213 -10ZM284 593L304 707H404L384
593H284Z" />
<glyph unicode="&#xc0;" horiz-adv-x="520" d="M18 0L315 700H451L502 0H400L386 178H195L120 0H18ZM224 252H384L364 580H360L224 252ZM351 760L296 890H394L414 760H351Z" />
<glyph unicode="&#xc1;" horiz-adv-x="520" d="M18 0L315 700H451L502 0H400L386 178H195L120 0H18ZM224 252H384L364 580H360L224 252ZM343 760L401 890H503L408 760H343Z" />
<glyph unicode="&#xc2;" horiz-adv-x="520" d="M18 0L315 700H451L502 0H400L386 178H195L120 0H18ZM224 252H384L364 580H360L224 252ZM262 750L362 880H460L514 750H448L401 823L327 750H262Z" />
<glyph unicode="&#xc3;" horiz-adv-x="520" d="M18 0L315 700H451L502 0H400L386 178H195L120 0H18ZM224 252H384L364 580H360L224 252ZM439 763Q415 763 401 777T378 805T356 819Q334 819 324 777H270Q282 835 305 861T366 887Q384 887 396 879T416 859T431 839T447
830Q472 830 481 873H535Q522 814 499 789T439 763Z" />
<glyph unicode="&#xc4;" horiz-adv-x="520" d="M18 0L315 700H451L502 0H400L386 178H195L120 0H18ZM224 252H384L364 580H360L224 252ZM425 777L445 890H542L522 777H425ZM265 777L285 890H382L362 777H265Z" />
<glyph unicode="&#xc5;" horiz-adv-x="520" d="M18 0L315 700H451L502 0H400L386 178H195L120 0H18ZM224 252H384L364 580H360L224 252ZM388 738Q350 738 329 760T314 820Q321 858 349 880T417 902Q456 902 477 880T491 820Q484 783 456 761T388 738ZM397 787Q410
787 421 794T436 820Q438 838 430 845T408 853Q394 853 383 846T369 820Q365 802 374 795T397 787Z" />
<glyph unicode="&#xc6;" horiz-adv-x="739" d="M0 0L363 700H822L809 627H561L521 402H739L727 328H508L463 73H712L699 0H351L381 178H192L100 0H0ZM230 252H395L461 627H425L230 252Z" />
<glyph unicode="&#xc7;" horiz-adv-x="442" d="M271 -10Q199 -10 155 21T98 131T109 350Q134 490 174 568T267 678T388 710Q436 710 476 704T538 690L529 642H402Q362 642 326 617T260 529T209 350Q190 235 197 172T234 83T310 58H436L428 10Q405 3 362 -3T271
-10ZM254 -167Q219 -167 201 -160T183 -152L188 -120H252Q270 -120 278 -114T288 -97Q290 -87 285 -80T262 -73H207L223 15H274L267 -27H282Q324 -27 343 -47T357 -97Q352 -127 325 -147T254 -167Z" />
<glyph unicode="&#xc8;" horiz-adv-x="458" d="M70 0L193 700H541L529 627H280L240 402H459L446 328H228L183 73H431L418 0H70ZM343 760L288 890H386L406 760H343Z" />
<glyph unicode="&#xc9;" horiz-adv-x="458" d="M70 0L193 700H541L529 627H280L240 402H459L446 328H228L183 73H431L418 0H70ZM332 760L390 890H492L397 760H332Z" />
<glyph unicode="&#xca;" horiz-adv-x="458" d="M70 0L193 700H541L529 627H280L240 402H459L446 328H228L183 73H431L418 0H70ZM254 750L354 880H452L506 750H440L393 823L319 750H254Z" />
<glyph unicode="&#xcb;" horiz-adv-x="458" d="M70 0L193 700H541L529 627H280L240 402H459L446 328H228L183 73H431L418 0H70ZM416 777L436 890H533L513 777H416ZM256 777L276 890H373L353 777H256Z" />
<glyph unicode="&#xcc;" horiz-adv-x="240" d="M70 0L193 700H293L170 0H70ZM213 760L158 890H256L276 760H213Z" />
<glyph unicode="&#xcd;" horiz-adv-x="240" d="M70 0L193 700H293L170 0H70ZM207 760L265 890H367L272 760H207Z" />
<glyph unicode="&#xce;" horiz-adv-x="222" d="M58 0L181 700H281L158 0H58ZM117 750L217 880H315L369 750H303L255 823L182 750H117Z" />
<glyph unicode="&#xcf;" horiz-adv-x="240" d="M70 0L193 700H293L170 0H70ZM289 777L309 890H406L386 777H289ZM129 777L149 890H246L226 777H129Z" />
<glyph unicode="&#xd0;" horiz-adv-x="547" d="M251 -10Q203 -10 164 -6T89 10L144 318H66L78 392H157L209 690Q249 701 289 705T378 710Q459 710 508 678T570 567T559 350Q536 212 495 133T393 22T251 -10ZM198 58H263Q306 58 343 83T410 171T459 350Q480 466
473 529T438 617T366 642H301L257 392H365L352 318H244L198 58Z" />
<glyph unicode="&#xd1;" horiz-adv-x="550" d="M70 0L193 700H300L415 217H420L505 700H603L480 0H373L258 483H253L168 0H70ZM468 763Q444 763 430 777T407 805T385 819Q363 819 353 777H299Q311 835 334 861T395 887Q413 887 425 879T445 859T460 839T476 830Q501
830 510 873H564Q551 814 528 789T468 763Z" />
<glyph unicode="&#xd2;" horiz-adv-x="537" d="M266 -10Q215 -10 178 7T119 66T94 176T109 350Q134 488 174 566T270 677T393 710Q445 710 482 693T541 634T565 524T549 350Q526 212 486 133T390 22T266 -10ZM277 53Q308 53 340 78T400 167T449 350Q465 439 465
496T455 587T424 633T382 647Q351 647 320 622T260 533T209 350Q194 261 194 204T204 113T235 67T277 53ZM358 760L303 890H401L421 760H358Z" />
<glyph unicode="&#xd3;" horiz-adv-x="537" d="M266 -10Q215 -10 178 7T119 66T94 176T109 350Q134 488 174 566T270 677T393 710Q445 710 482 693T541 634T565 524T549 350Q526 212 486 133T390 22T266 -10ZM277 53Q308 53 340 78T400 167T449 350Q465 439 465
496T455 587T424 633T382 647Q351 647 320 622T260 533T209 350Q194 261 194 204T204 113T235 67T277 53ZM356 760L414 890H516L421 760H356Z" />
<glyph unicode="&#xd4;" horiz-adv-x="537" d="M266 -10Q215 -10 178 7T119 66T94 176T109 350Q134 488 174 566T270 677T393 710Q445 710 482 693T541 634T565 524T549 350Q526 212 486 133T390 22T266 -10ZM277 53Q308 53 340 78T400 167T449 350Q465 439 465
496T455 587T424 633T382 647Q351 647 320 622T260 533T209 350Q194 261 194 204T204 113T235 67T277 53ZM275 750L375 880H473L527 750H461L414 823L340 750H275Z" />
<glyph unicode="&#xd5;" horiz-adv-x="537" d="M266 -10Q215 -10 178 7T119 66T94 176T109 350Q134 488 174 566T270 677T393 710Q445 710 482 693T541 634T565 524T549 350Q526 212 486 133T390 22T266 -10ZM277 53Q308 53 340 78T400 167T449 350Q465 439 465
496T455 587T424 633T382 647Q351 647 320 622T260 533T209 350Q194 261 194 204T204 113T235 67T277 53ZM452 763Q428 763 414 777T391 805T369 819Q347 819 337 777H283Q295 835 318 861T379 887Q397 887 409 879T429 859T444 839T460 830Q485 830 494 873H548Q535
814 512 789T452 763Z" />
<glyph unicode="&#xd6;" horiz-adv-x="537" d="M266 -10Q215 -10 178 7T119 66T94 176T109 350Q134 488 174 566T270 677T393 710Q445 710 482 693T541 634T565 524T549 350Q526 212 486 133T390 22T266 -10ZM277 53Q308 53 340 78T400 167T449 350Q465 439 465
496T455 587T424 633T382 647Q351 647 320 622T260 533T209 350Q194 261 194 204T204 113T235 67T277 53ZM438 777L458 890H555L535 777H438ZM278 777L298 890H395L375 777H278Z" />
<glyph unicode="&#xd7;" horiz-adv-x="407" d="M125 167L79 223L205 330L116 437L183 493L271 387L397 493L443 437L318 330L405 223L339 167L251 273L125 167Z" />
<glyph unicode="&#xd8;" horiz-adv-x="543" d="M270 -10Q217 -10 179 8T120 69L74 17L36 50L103 126Q96 167 98 222T113 350Q137 488 177 566T273 677T397 710Q449 710 487 692T545 630L591 683L629 650L563 574Q570 534 568 479T553 350Q529 212 489 133T393
22T270 -10ZM280 53Q312 53 343 78T403 167T453 350Q459 384 462 412T467 465L198 159Q205 98 228 76T280 53ZM198 235L466 540Q461 602 438 624T385 647Q355 647 323 622T263 533T213 350Q207 316 204 288T198 235Z" />
<glyph unicode="&#xd9;" horiz-adv-x="530" d="M263 -10Q192 -10 151 13T98 92T102 240L183 700H283L202 240Q189 167 194 127T220 70T274 53Q306 53 332 69T379 126T412 240L493 700H593L512 240Q495 147 464 92T384 14T263 -10ZM350 760L295 890H393L413 760H350Z" />
<glyph unicode="&#xda;" horiz-adv-x="530" d="M263 -10Q192 -10 151 13T98 92T102 240L183 700H283L202 240Q189 167 194 127T220 70T274 53Q306 53 332 69T379 126T412 240L493 700H593L512 240Q495 147 464 92T384 14T263 -10ZM344 760L402 890H504L409 760H344Z" />
<glyph unicode="&#xdb;" horiz-adv-x="530" d="M263 -10Q192 -10 151 13T98 92T102 240L183 700H283L202 240Q189 167 194 127T220 70T274 53Q306 53 332 69T379 126T412 240L493 700H593L512 240Q495 147 464 92T384 14T263 -10ZM263 750L363 880H461L515 750H449L402
823L328 750H263Z" />
<glyph unicode="&#xdc;" horiz-adv-x="530" d="M263 -10Q192 -10 151 13T98 92T102 240L183 700H283L202 240Q189 167 194 127T220 70T274 53Q306 53 332 69T379 126T412 240L493 700H593L512 240Q495 147 464 92T384 14T263 -10ZM426 777L446 890H543L523 777H426ZM266
777L286 890H383L363 777H266Z" />
<glyph unicode="&#xdd;" horiz-adv-x="460" d="M180 0L218 217L131 700H233L291 349L473 700H575L318 217L280 0H180ZM316 760L374 890H476L381 760H316Z" />
<glyph unicode="&#xde;" horiz-adv-x="508" d="M68 -10L195 710H295L281 632Q435 625 494 553T531 350Q508 219 423 148T182 68L168 -10H68ZM193 137Q292 141 352 194T431 350Q449 453 407 506T269 563L193 137Z" />
<glyph unicode="&#xdf;" horiz-adv-x="537" d="M328 -10Q306 -10 279 -4T229 10L237 53H319Q360 53 390 71T428 135Q433 165 421 185T387 223T344 259T310 303T304 365Q310 399 330 422T374 463T417 502T441 550Q449 592 428 617T372 642Q331 642 299 609T252
495L165 0H65L152 495Q172 609 229 659T385 710Q476 710 515 667T541 550Q535 513 515 489T471 447T428 410T404 365Q400 342 413 325T448 291T491 254T524 206T528 135Q518 78 492 47T425 3T328 -10Z" />
<glyph unicode="&#xe0;" horiz-adv-x="473" d="M208 -10Q157 -10 124 14T80 95T87 250Q105 348 136 405T216 486T336 510Q383 510 420 503T492 480L408 0H330L327 30H322Q301 12 272 1T208 -10ZM252 53Q271 53 290 59T321 73L387 447H325Q294 447 268 431T221
371T187 250Q174 172 178 129T202 70T252 53ZM316 560L261 690H359L379 560H316Z" />
<glyph unicode="&#xe1;" horiz-adv-x="473" d="M208 -10Q157 -10 124 14T80 95T87 250Q105 348 136 405T216 486T336 510Q383 510 420 503T492 480L408 0H330L327 30H322Q301 12 272 1T208 -10ZM252 53Q271 53 290 59T321 73L387 447H325Q294 447 268 431T221
371T187 250Q174 172 178 129T202 70T252 53ZM314 560L372 690H474L379 560H314Z" />
<glyph unicode="&#xe2;" horiz-adv-x="473" d="M208 -10Q157 -10 124 14T80 95T87 250Q105 348 136 405T216 486T336 510Q383 510 420 503T492 480L408 0H330L327 30H322Q301 12 272 1T208 -10ZM252 53Q271 53 290 59T321 73L387 447H325Q294 447 268 431T221
371T187 250Q174 172 178 129T202 70T252 53ZM233 550L333 680H431L485 550H419L372 623L298 550H233Z" />
<glyph unicode="&#xe3;" horiz-adv-x="473" d="M208 -10Q157 -10 124 14T80 95T87 250Q105 348 136 405T216 486T336 510Q383 510 420 503T492 480L408 0H330L327 30H322Q301 12 272 1T208 -10ZM252 53Q271 53 290 59T321 73L387 447H325Q294 447 268 431T221
371T187 250Q174 172 178 129T202 70T252 53ZM410 563Q386 563 372 577T349 605T327 619Q305 619 295 577H241Q253 635 276 661T337 687Q355 687 367 679T387 659T402 639T418 630Q443 630 452 673H506Q493 614 470 589T410 563Z" />
<glyph unicode="&#xe4;" horiz-adv-x="473" d="M208 -10Q157 -10 124 14T80 95T87 250Q105 348 136 405T216 486T336 510Q383 510 420 503T492 480L408 0H330L327 30H322Q301 12 272 1T208 -10ZM252 53Q271 53 290 59T321 73L387 447H325Q294 447 268 431T221
371T187 250Q174 172 178 129T202 70T252 53ZM396 577L416 690H513L493 577H396ZM236 577L256 690H353L333 577H236Z" />
<glyph unicode="&#xe5;" horiz-adv-x="473" d="M208 -10Q157 -10 124 14T80 95T87 250Q105 348 136 405T216 486T336 510Q383 510 420 503T492 480L408 0H330L327 30H322Q301 12 272 1T208 -10ZM252 53Q271 53 290 59T321 73L387 447H325Q294 447 268 431T221
371T187 250Q174 172 178 129T202 70T252 53ZM359 538Q321 538 300 560T285 620Q292 658 320 680T388 702Q427 702 448 680T462 620Q455 583 427 561T359 538ZM368 587Q381 587 392 594T407 620Q409 638 401 645T379 653Q365 653 354 646T340 620Q336 602 345 595T368
587Z" />
<glyph unicode="&#xe6;" horiz-adv-x="695" d="M196 -10Q151 -10 118 2T71 47T67 140Q78 199 103 230T165 274T249 287Q272 287 296 284T342 277L352 340Q364 405 340 426T263 447H163L171 490Q195 498 229 504T294 510Q343 510 377 493T426 443Q452 475 487 492T572
510Q664 510 702 471T728 360Q716 290 666 254T521 218H431Q415 125 440 89T537 53H640L633 10Q610 3 575 -3T506 -10Q445 -10 411 6T358 57Q330 25 291 8T196 -10ZM230 53Q251 53 268 59T295 71T307 80L332 223H267Q234 223 205 206T167 140Q159 90 180 72T230
53ZM443 282H533Q571 282 596 302T628 360Q636 405 618 428T564 452Q537 452 514 437T473 386T443 282Z" />
<glyph unicode="&#xe7;" horiz-adv-x="382" d="M241 -10Q173 -10 133 14T82 95T87 250Q105 348 135 405T212 486T322 510Q355 510 388 504T443 490L435 447H332Q297 447 269 431T221 371T187 250Q174 172 179 129T208 70T272 53H375L368 10Q345 3 310 -3T241 -10ZM215
-167Q180 -167 162 -160T144 -152L149 -120H213Q231 -120 239 -114T249 -97Q251 -87 246 -80T223 -73H168L184 15H235L228 -27H243Q285 -27 304 -47T318 -97Q313 -127 286 -147T215 -167Z" />
<glyph unicode="&#xe8;" horiz-adv-x="442" d="M256 -10Q181 -10 138 14T82 95T87 250Q105 348 135 405T213 486T326 510Q412 510 451 468T476 352Q464 282 414 245T270 208H180Q165 122 190 88T287 53H390L383 10Q360 3 325 -3T256 -10ZM191 272H281Q319 272
344 293T376 352Q385 399 366 425T314 452Q287 452 264 437T222 383T191 272ZM293 560L238 690H336L356 560H293Z" />
<glyph unicode="&#xe9;" horiz-adv-x="442" d="M256 -10Q181 -10 138 14T82 95T87 250Q105 348 135 405T213 486T326 510Q412 510 451 468T476 352Q464 282 414 245T270 208H180Q165 122 190 88T287 53H390L383 10Q360 3 325 -3T256 -10ZM191 272H281Q319 272
344 293T376 352Q385 399 366 425T314 452Q287 452 264 437T222 383T191 272ZM291 560L349 690H451L356 560H291Z" />
<glyph unicode="&#xea;" horiz-adv-x="442" d="M256 -10Q181 -10 138 14T82 95T87 250Q105 348 135 405T213 486T326 510Q412 510 451 468T476 352Q464 282 414 245T270 208H180Q165 122 190 88T287 53H390L383 10Q360 3 325 -3T256 -10ZM191 272H281Q319 272
344 293T376 352Q385 399 366 425T314 452Q287 452 264 437T222 383T191 272ZM210 550L310 680H408L462 550H396L349 623L275 550H210Z" />
<glyph unicode="&#xeb;" horiz-adv-x="442" d="M256 -10Q181 -10 138 14T82 95T87 250Q105 348 135 405T213 486T326 510Q412 510 451 468T476 352Q464 282 414 245T270 208H180Q165 122 190 88T287 53H390L383 10Q360 3 325 -3T256 -10ZM191 272H281Q319 272
344 293T376 352Q385 399 366 425T314 452Q287 452 264 437T222 383T191 272ZM373 577L393 690H490L470 577H373ZM213 577L233 690H330L310 577H213Z" />
<glyph unicode="&#xec;" horiz-adv-x="240" d="M70 0L158 500H258L170 0H70ZM435 560L380 690H478L498 560H435Z" />
<glyph unicode="&#xed;" horiz-adv-x="240" d="M70 0L158 500H258L170 0H70ZM168 560L226 690H328L233 560H168Z" />
<glyph unicode="&#xee;" horiz-adv-x="240" d="M70 0L158 500H258L170 0H70ZM343 550L443 680H541L595 550H529L482 623L408 550H343Z" />
<glyph unicode="&#xef;" horiz-adv-x="240" d="M70 0L158 500H258L170 0H70ZM506 577L526 690H623L603 577H506ZM346 577L366 690H463L443 577H346Z" />
<glyph unicode="&#xf0;" horiz-adv-x="465" d="M228 -10Q133 -10 95 42T77 215Q99 336 154 388T297 440Q330 440 352 433T393 415Q400 453 398 485T384 543L323 483L283 520L352 589Q328 615 287 635T194 667L207 710Q272 705 323 689T409 644L475 709L515 672L447
606Q478 564 487 502T482 357L457 215Q436 94 380 42T228 -10ZM238 48Q275 48 307 84T357 215L382 357Q374 365 357 371T316 377Q264 377 229 342T177 215Q166 152 171 116T195 64T238 48Z" />
<glyph unicode="&#xf1;" horiz-adv-x="485" d="M65 0L153 500H231L234 470H239Q260 488 289 499T354 510Q400 510 432 498T479 452T482 357L420 0H320L382 357Q389 392 380 411T353 439T308 447Q289 447 270 441T240 427L165 0H65ZM401 563Q377 563 363 577T340
605T318 619Q296 619 286 577H232Q244 635 267 661T328 687Q346 687 358 679T378 659T393 639T409 630Q434 630 443 673H497Q484 614 461 589T401 563Z" />
<glyph unicode="&#xf2;" horiz-adv-x="467" d="M231 -10Q170 -10 132 15T82 97T87 250Q104 347 135 403T214 485T322 510Q384 510 422 485T472 404T467 250Q450 154 418 97T340 15T231 -10ZM241 48Q265 48 289 65T333 127T367 250Q381 329 377 373T355 434T313
452Q289 452 265 435T221 373T187 250Q173 171 177 127T199 66T241 48ZM286 560L231 690H329L349 560H286Z" />
<glyph unicode="&#xf3;" horiz-adv-x="467" d="M231 -10Q170 -10 132 15T82 97T87 250Q104 347 135 403T214 485T322 510Q384 510 422 485T472 404T467 250Q450 154 418 97T340 15T231 -10ZM241 48Q265 48 289 65T333 127T367 250Q381 329 377 373T355 434T313
452Q289 452 265 435T221 373T187 250Q173 171 177 127T199 66T241 48ZM284 560L342 690H444L349 560H284Z" />
<glyph unicode="&#xf4;" horiz-adv-x="467" d="M231 -10Q170 -10 132 15T82 97T87 250Q104 347 135 403T214 485T322 510Q384 510 422 485T472 404T467 250Q450 154 418 97T340 15T231 -10ZM241 48Q265 48 289 65T333 127T367 250Q381 329 377 373T355 434T313
452Q289 452 265 435T221 373T187 250Q173 171 177 127T199 66T241 48ZM203 550L303 680H401L455 550H389L342 623L268 550H203Z" />
<glyph unicode="&#xf5;" horiz-adv-x="467" d="M231 -10Q170 -10 132 15T82 97T87 250Q104 347 135 403T214 485T322 510Q384 510 422 485T472 404T467 250Q450 154 418 97T340 15T231 -10ZM241 48Q265 48 289 65T333 127T367 250Q381 329 377 373T355 434T313
452Q289 452 265 435T221 373T187 250Q173 171 177 127T199 66T241 48ZM380 563Q356 563 342 577T319 605T297 619Q275 619 265 577H211Q223 635 246 661T307 687Q325 687 337 679T357 659T372 639T388 630Q413 630 422 673H476Q463 614 440 589T380 563Z" />
<glyph unicode="&#xf6;" horiz-adv-x="467" d="M231 -10Q170 -10 132 15T82 97T87 250Q104 347 135 403T214 485T322 510Q384 510 422 485T472 404T467 250Q450 154 418 97T340 15T231 -10ZM241 48Q265 48 289 65T333 127T367 250Q381 329 377 373T355 434T313
452Q289 452 265 435T221 373T187 250Q173 171 177 127T199 66T241 48ZM366 577L386 690H483L463 577H366ZM206 577L226 690H323L303 577H206Z" />
<glyph unicode="&#xf7;" horiz-adv-x="437" d="M75 258L89 342H466L451 258H75ZM190 92L208 188H294L277 92H190ZM247 412L264 508H351L334 412H247Z" />
<glyph unicode="&#xf8;" horiz-adv-x="483" d="M240 -10Q192 -10 159 4T106 51L69 17L38 60L88 106Q84 134 86 170T96 250Q113 347 144 403T222 485T331 510Q378 510 412 496T464 449L501 483L532 440L482 394Q486 366 485 330T476 250Q459 154 427 97T348 15T240
-10ZM249 48Q274 48 297 65T341 127T376 250Q378 265 379 278T382 303L186 124Q190 81 207 65T249 48ZM187 196L383 376Q379 419 362 435T321 452Q297 452 274 435T230 373T196 250Q193 236 191 223T187 196Z" />
<glyph unicode="&#xf9;" horiz-adv-x="485" d="M218 -10Q173 -10 140 2T93 48T90 143L153 500H253L190 143Q181 91 203 72T264 53Q283 53 302 59T333 73L408 500H508L420 0H342L338 30H333Q312 12 283 1T218 -10ZM302 560L247 690H345L365 560H302Z" />
<glyph unicode="&#xfa;" horiz-adv-x="485" d="M218 -10Q173 -10 140 2T93 48T90 143L153 500H253L190 143Q181 91 203 72T264 53Q283 53 302 59T333 73L408 500H508L420 0H342L338 30H333Q312 12 283 1T218 -10ZM294 560L352 690H454L359 560H294Z" />
<glyph unicode="&#xfb;" horiz-adv-x="485" d="M218 -10Q173 -10 140 2T93 48T90 143L153 500H253L190 143Q181 91 203 72T264 53Q283 53 302 59T333 73L408 500H508L420 0H342L338 30H333Q312 12 283 1T218 -10ZM215 550L315 680H413L467 550H401L354 623L280 550H215Z" />
<glyph unicode="&#xfc;" horiz-adv-x="485" d="M218 -10Q173 -10 140 2T93 48T90 143L153 500H253L190 143Q181 91 203 72T264 53Q283 53 302 59T333 73L408 500H508L420 0H342L338 30H333Q312 12 283 1T218 -10ZM376 577L396 690H493L473 577H376ZM216 577L236
690H333L313 577H216Z" />
<glyph unicode="&#xfd;" horiz-adv-x="485" d="M177 -210Q145 -210 112 -204T58 -190L65 -147H169Q233 -147 269 -112T322 17Q299 4 274 -3T218 -10Q173 -10 140 2T93 48T90 143L153 500H253L190 143Q181 91 203 72T264 53Q283 53 302 59T333 73L408 500H508L427
40Q410 -53 379 -108T298 -186T177 -210ZM294 560L352 690H454L359 560H294Z" />
<glyph unicode="&#xfe;" horiz-adv-x="478" d="M34 -200L193 700H293L255 485Q278 496 301 503T354 510Q408 510 441 486T486 405T479 250Q461 152 431 95T359 14T263 -10Q234 -10 213 -3T172 15L134 -200H34ZM244 53Q274 53 299 69T345 129T379 250Q393 328 388
371T364 430T313 447Q294 447 275 441T245 427L183 73Q191 66 208 60T244 53Z" />
<glyph unicode="&#xff;" horiz-adv-x="485" d="M177 -210Q145 -210 112 -204T58 -190L65 -147H169Q233 -147 269 -112T322 17Q299 4 274 -3T218 -10Q173 -10 140 2T93 48T90 143L153 500H253L190 143Q181 91 203 72T264 53Q283 53 302 59T333 73L408 500H508L427
40Q410 -53 379 -108T298 -186T177 -210ZM376 577L396 690H493L473 577H376ZM216 577L236 690H333L313 577H216Z" />
<glyph unicode="&#x2013;" horiz-adv-x="467" d="M73 243L85 317H492L479 243H73Z" />
<glyph unicode="&#x2014;" horiz-adv-x="647" d="M73 243L85 317H672L659 243H73Z" />
<glyph unicode="&#x2018;" horiz-adv-x="178" d="M124 478L197 702H267L227 478H124Z" />
<glyph unicode="&#x2019;" horiz-adv-x="178" d="M124 478L163 702H267L194 478H124Z" />
<glyph unicode="&#x201a;" horiz-adv-x="178" d="M19 -117L58 107H162L89 -117H19Z" />
<glyph unicode="&#x201c;" horiz-adv-x="335" d="M275 478L348 702H418L379 478H275ZM119 478L192 702H262L222 478H119Z" />
<glyph unicode="&#x201d;" horiz-adv-x="335" d="M280 478L320 702H423L350 478H280ZM124 478L163 702H267L194 478H124Z" />
<glyph unicode="&#x201e;" horiz-adv-x="335" d="M175 -117L215 107H318L245 -117H175ZM19 -117L58 107H162L89 -117H19Z" />
<glyph unicode="&#x2022;" horiz-adv-x="257" d="M91 267L121 432H287L258 267H91Z" />
<glyph unicode="&#x2039;" horiz-adv-x="305" d="M204 7L64 250L290 493L354 448L174 252L173 248L283 52L204 7Z" />
<glyph unicode="&#x203a;" horiz-adv-x="305" d="M102 7L38 52L218 248L219 252L109 448L188 493L329 250L102 7Z" />
</font>
</defs>
</svg>
